<?xml version="1.0" encoding="UTF-8" standalone="no"?>
<svg
   xmlns:dc="http://purl.org/dc/elements/1.1/"
   xmlns:cc="http://creativecommons.org/ns#"
   xmlns:rdf="http://www.w3.org/1999/02/22-rdf-syntax-ns#"
   xmlns:svg="http://www.w3.org/2000/svg"
   xmlns="http://www.w3.org/2000/svg"
   xmlns:sodipodi="http://sodipodi.sourceforge.net/DTD/sodipodi-0.dtd"
   xmlns:inkscape="http://www.inkscape.org/namespaces/inkscape"
   version="1.1"
   id="svg28"
   xml:space="preserve"
   width="1066.6667"
   height="600"
   viewBox="0 0 1066.6667 600"
   sodipodi:docname="san_diego_vector.svg"
   inkscape:version="1.0.2 (e86c8708, 2021-01-15)"><metadata
     id="metadata34"><rdf:RDF><cc:Work
         rdf:about=""><dc:format>image/svg+xml</dc:format><dc:type
           rdf:resource="http://purl.org/dc/dcmitype/StillImage" /><dc:title></dc:title></cc:Work></rdf:RDF></metadata><defs
     id="defs32" /><sodipodi:namedview
     pagecolor="#ffffff"
     bordercolor="#666666"
     borderopacity="1"
     objecttolerance="10"
     gridtolerance="10"
     guidetolerance="10"
     inkscape:pageopacity="0"
     inkscape:pageshadow="2"
     inkscape:window-width="1920"
     inkscape:window-height="1080"
     id="namedview30"
     showgrid="false"
     inkscape:zoom="0.98718742"
     inkscape:cx="533.33337"
     inkscape:cy="300"
     inkscape:window-x="0"
     inkscape:window-y="0"
     inkscape:window-maximized="0"
     inkscape:current-layer="g36" /><g
     id="g36"
     inkscape:groupmode="layer"
     inkscape:label="ink_ext_XXXXXX"
     transform="matrix(1.3333333,0,0,-1.3333333,0,600)"><g
       id="g38"
       transform="scale(0.1)"><path
         d="M 8000,0.0117188 H 0.0195313 L 0.0195313,4500 H 8000 V 0.0117188"
         style="fill:#6dc9d8;fill-opacity:1;fill-rule:nonzero;stroke:none"
         id="path40" /><path
         d="m 1741.4,3236.98 v 2.07 c 0,224.73 -182.29,406.93 -407.06,406.93 -169.06,0 -314.06,-103.12 -375.59,-249.86 -10.332,1.06 -20.762,1.66 -31.348,1.66 -163.613,0 -296.172,-132.65 -296.172,-296.15 0,-28.32 4.004,-55.8 11.512,-81.7 h 348.508 220.66 281.16 184.33 253.89 c 0,111.11 -82.67,202.85 -189.89,217.05"
         style="fill:#ffffff;fill-opacity:1;fill-rule:nonzero;stroke:none"
         id="path42" /><path
         d="m 2988.96,3689.39 v 1.5 c 0,166.09 134.7,300.74 300.82,300.74 124.92,0 232.1,-76.21 277.57,-184.67 7.66,0.81 15.32,1.23 23.19,1.23 120.89,0 218.85,-98 218.85,-218.86 0,-20.94 -2.94,-41.22 -8.49,-60.37 h -257.57 -163.11 -207.76 -136.25 -187.6 c 0,82.1 61.12,149.9 140.35,160.43"
         style="fill:#c2e8eb;fill-opacity:1;fill-rule:nonzero;stroke:none"
         id="path44" /><path
         d="m 5042.91,3321.18 v 1.51 c 0,166.11 134.71,300.74 300.8,300.74 124.94,0 232.12,-76.21 277.59,-184.67 7.66,0.8 15.32,1.23 23.19,1.23 120.9,0 218.86,-98.01 218.86,-218.87 0,-20.93 -2.95,-41.21 -8.51,-60.37 h -257.55 -163.1 -207.78 -136.23 -187.62 c 0,82.11 61.12,149.92 140.35,160.43"
         style="fill:#c2e8eb;fill-opacity:1;fill-rule:nonzero;stroke:none"
         id="path46" /><path
         d="m 6301.81,3392.1 c 0,-253.73 -205.69,-459.41 -459.42,-459.41 -253.74,0 -459.43,205.68 -459.43,459.41 0,253.71 205.69,459.4 459.43,459.4 253.73,0 459.42,-205.69 459.42,-459.4"
         style="fill:#f09b56;fill-opacity:1;fill-rule:nonzero;stroke:none"
         id="path48" /><path
         d="m 6952.52,3031.46 v 2.07 c 0,224.72 -182.29,406.93 -407.05,406.93 -169.03,0 -314.04,-103.15 -375.59,-249.88 -10.31,1.07 -20.74,1.66 -31.34,1.66 -163.6,0 -296.15,-132.62 -296.15,-296.14 0,-28.32 4,-55.82 11.47,-81.7 h 348.54 220.67 281.17 184.32 253.86 c 0,111.12 -82.66,202.84 -189.9,217.06"
         style="fill:#ffffff;fill-opacity:1;fill-rule:nonzero;stroke:none"
         id="path50" /><path
         d="m 7685.63,1174.84 c 5.14,-1.72 9.85,-3.38 14.23,-4.94 3.44,-1.18 6.64,-2.31 9.71,-3.33 l 1.59,-0.54 2.09,1.67 -0.37,-1.31 2.25,-1.5 c 1.25,-0.81 2.72,-1.54 4.61,-2.15 l -0.56,-0.33 8.32,-1.78 c -5.11,-6.3 -9.5,-14.17 -13.39,-24.02 l -1.4,-3.54 2.99,-1.14 -3.68,-1.12 -0.6,-1.74 c -2.11,-6.33 -3.99,-13.39 -5.78,-21.5 l -1.22,-5.72 5.3,1.42 c 11.73,3.14 21.56,5.25 30.25,7.16 3.45,0.76 6.72,1.43 9.81,2.15 l 1.66,0.38 0.99,2.55 0.29,-1.32 2.64,-0.07 c 0.9,-0.05 2.01,0.16 3.06,0.3 -2.93,-6.14 -6.19,-13.17 -9.83,-21.24 -0.6,-1.35 -1.23,-2.63 -1.84,-3.97 v 8.09 h -61.12 z m -5113.74,-6.19 h -17.11 c -10.68,25.67 -21.43,54.29 -30.51,79.61 4.02,4.39 7.89,8.75 11.5,12.96 9.24,10.6 17.22,20.34 23.75,28.69 h 12.37 z m -60.56,0 v -16.47 h -9.86 v 72.05 c 5.46,5.52 10.7,10.91 15.69,16.26 8.33,-23.07 17.9,-48.48 27.49,-71.84 z m 0,-51.87 h -9.86 v 6.27 h 9.86 z m -9.86,168.22 c 3.42,-9.91 7.53,-21.7 12.15,-34.62 -4.03,-4.26 -8.05,-8.46 -12.15,-12.65 z m 46.36,4.91 c -8.52,-10.64 -17.58,-21.29 -27.1,-31.73 -4.17,11.83 -7.95,22.66 -11.03,31.73 z m -63.15,-68.77 c -19.07,-18.27 -38.78,-35.06 -57.95,-49.49 v 65.92 c 10.17,10.13 19.43,19.86 27.56,28.82 12.73,14.11 22.89,26.42 30.39,35.93 z m 0,-104.36 h -57.95 v 42.77 c 21.03,15.37 40.54,31.87 57.95,48.32 z m -1227.16,258.78 v -13.92 c -90.82,70.18 -171.13,136.26 -236.31,191.8 v 122.97 c 26.09,-27.34 68.63,-70.48 124.37,-122.15 57.34,-53.22 128.73,-115.49 210.3,-178.7 z m 0,-320.89 c -7.89,-0.19 -15.64,-0.45 -23.51,-0.66 v 281.13 h -112.77 v -284.75 c -10.99,-0.42 -21.98,-0.83 -32.89,-1.28 v 154.05 h -42.31 v 67.73 h -24.83 v 269.84 c 65.53,-55.73 145.8,-121.61 236.31,-191.4 z m -271.895,529.34 c -8.914,7.7 -17.395,15.13 -25.527,22.26 8.496,24.19 14.445,42.63 17.824,53.34 h 7.703 z m 0,-225.93 H 860.781 v 8.41 c 26.184,53.79 48.379,105.97 66.387,151.46 11.633,29.42 21.484,56 29.453,78.47 9.199,-8.08 18.867,-16.47 29.004,-25.19 z m 0,-87.19 H 933.242 V 1137.23 H 886.23 v 89.05 h -25.449 v 75.32 h 124.844 z m -124.844,388.72 h 24.817 c 17.312,-15.71 38.613,-34.73 63.418,-56.55 -8.071,-22.93 -18.274,-50.54 -30.395,-81.22 -18.023,-45.6 -37.117,-90.55 -57.84,-134.31 z m 107.324,0 c -3.292,-10.4 -8.527,-26.38 -15.578,-46.7 -19.937,17.49 -37.476,33.19 -52.476,46.7 z m -142.91,-343.12 c -10.507,-19.71 -21.562,-39.01 -32.922,-58.09 v 76.74 h -99.39 c 36.668,70.08 67.039,139.97 90.23,198.67 18.801,47.64 32.992,87.96 42.082,115.09 z m 0,-90.21 h -4.734 v -89.05 h -28.188 v 102.67 c 11.372,18.89 22.461,37.97 32.922,57.23 z M 275.059,903.281 c -2.864,5.789 -5.735,11.481 -8.582,17.449 l -1.555,3.27 -0.027,-0.02 -1.172,2.508 c -4.844,10.153 -9.614,20.492 -14.348,31.012 -3.633,8.07 -6.895,15.102 -9.824,21.238 1.047,-0.148 2.148,-0.359 3.039,-0.316 l 2.652,0.109 0.246,1.289 1.067,-2.55 1.648,-0.379 c 3.067,-0.672 6.301,-1.391 9.758,-2.141 5.191,-1.121 10.906,-2.379 17.098,-3.852 z m 7491.771,95.02 h -20.08 v 11.199 l 15.29,33.17 -0.01,0.01 15.81,34.46 c 1.13,4.26 2.94,11.31 4.87,19.41 0.68,-1.9 1.33,-3.71 2.08,-5.72 3.21,-8.86 6.93,-18.91 10.84,-31.11 l 1.77,-5.59 3.78,4.25 c 5.39,6.03 9.86,11.57 13.61,16.94 l 1.02,1.47 -1.12,3.95 2.43,-2.07 2.03,3.17 c 5.6,8.86 9.34,17.18 11.45,25.28 l 1.48,-1.43 1.31,-1.53 2.35,-2.42 c 1.72,-1.6 3.31,-2.72 4.87,-3.57 l 2.39,-1.27 0.84,1.09 -0.23,-2.8 1.33,-1.18 c 2.45,-2.18 5.13,-4.5 7.95,-6.96 6.83,-5.96 14.55,-12.75 23.53,-21.3 l 4.09,-3.88 1.35,5.69 c 1.96,8.01 3.27,15.16 4.17,21.91 l 0.24,1.87 -2.8,2.8 3.1,-0.47 0.27,3.84 c 0.92,11.84 0.16,21.88 -2.18,30.78 l -0.67,2.42 -3.03,0.24 1.89,2.93 -0.75,1.84 -0.67,1.59 c 7.46,-0.32 15.77,-0.81 25.34,-1.69 l 5.46,-0.51 -2.04,5.45 c -2.95,7.77 -5.81,14.35 -8.79,20.25 l -0.86,1.64 -3.79,0.47 2.8,1.6 -1.92,3.28 c -5.78,10.09 -11.92,17.68 -18.76,23.31 l -1.84,1.5 -2.6,-1.74 -0.1,3.58 -1.65,1.01 c -5.97,3.69 -12.84,5.94 -19.42,6.51 -15.11,2.28 -31.43,3.04 -49.1,-5.72 -3.06,17.46 -11.75,28.23 -20.17,38.65 l -1.21,1.5 c -4.24,5.97 -9.58,10.74 -15.73,14.18 l -1.68,0.92 -2.86,-1.84 -0.04,3.26 -2.19,0.86 c -8.15,3.18 -17.33,4.54 -28.31,4.3 l -3.57,-0.07 0.22,-3.37 -2.41,3.16 -1.74,-0.1 c -6.32,-0.51 -13.01,-1.54 -20.55,-3.06 l -5.35,-1.12 3.33,-4.68 c 7.26,-10.02 12.98,-18.68 18.03,-26.34 l -1.26,-3.24 -1.84,2.59 -2.21,-0.75 c -8.21,-2.62 -16.43,-7.46 -25.16,-14.72 l -2.86,-2.36 2.08,-2.55 -3.67,0.99 -1.36,-1.2 c -4.49,-4.25 -9.11,-9.14 -14.08,-14.85 h -3.17 c 4.02,15.96 8.08,31.99 12.31,47.91 l 0.94,3.55 -53.77,15.43 -19.6,-69.21 13.54,-3.89 v -5.1 l -14.87,4.27 -19.61,-69.25 34.48,-9.89 v -2.93 h -7.47 l -28.34,8.16 -2.3,-8.16 h -8.83 v 133.72 h -112.83 v -67.72 h -42.29 v -163.2 h -32.88 v 295.17 H 7272.1 V 1000.1 h -23.53 v 335.58 h -126.88 v 441.24 h -57.58 v 50.71 h -30.97 l -7.8,179.99 -10,-179.99 h -28.78 v -50.71 h -19.97 -19.96 v 50.71 h -28.8 l -10,179.99 -7.76,-179.99 h -30.97 v -50.71 h -57.56 v -441.24 h -126.9 V 1000.1 h -23.51 v 295.17 h -43.08 v 844.26 h -56.41 v 40.55 h -62.96 l -12.25,209.54 -12.21,-209.54 h -62.99 v -40.55 h -22.36 l -5.67,97.37 -5.67,-97.37 h -22.7 V 1097.3 h -41.48 v 89.11 h -6.28 v 473.26 h -28.18 v 78.54 h -145.72 v 68.46 h -86.92 v -68.46 h -152.76 v 30.42 h -75.18 v -30.42 h -68.16 v -78.54 h -56.39 v -412.46 h -14.86 v 74.64 h -122.18 v 110.39 h -98.7 V 1635 h -34.09 v 55.76 h -55.21 V 1635 h -42.31 v -202.76 h -35.24 v -37.01 h -35.25 v -61.28 h -28.19 v 184.49 30.39 h -72.87 v -30.39 h -72.84 v -131.81 h -102.61 v 32.25 h -11.7 v 197.72 h -25.35 l -12.53,214.98 -12.56,-214.98 h -44.87 l -11.67,269.45 -11.61,-269.45 h -41.23 v -197.72 h -21.9 v 13.36 h -51.74 v 40.56 h -32.88 v 45.64 h -65.77 v -124.62 h -25.88 v 112.99 H 4492.26 V 998.301 h -7.07 v 606.289 h -65.78 v -487.81 h -61.11 v 218.9 h -145.71 v -218.9 h -23.49 v 401.66 h -155.07 v 49.27 h -192.69 v -450.93 h -28.19 v 26.51 h -23.53 v 151.98 h -93.99 v 91.36 h -187.98 v 162.2 h -40.36 l -1.93,18.88 v 36.88 h -3.78 l -10.47,102.52 v -102.52 h -23.34 v -55.76 h -46.99 v 55.76 h -4.58 v 102.52 l -10.5,-102.52 h -27.2 v -55.76 h -37.61 v -405.54 h -37.59 v 192.39 h -28.22 v 30.68 H 3047.1 v -223.07 h -136.29 v 461.3 h -37.59 v 344.72 l -32.93,30.4 h -32.9 v 258.52 l -14.1,35.47 h -24.33 l -41.43,445.7 -36.77,-445.7 h -24.31 l -18.81,-35.47 v -258.52 h -28.19 v -375.12 h -32.91 V 1331.4 h -14.65 v -8.97 c -3.47,-5.08 -7.05,-10.2 -10.84,-15.3 h -57.2 l -2.38,7.18 v 17.09 h -16.79 v -13.78 c -16.34,-22.34 -36.39,-45.03 -57.95,-66.68 v 181.3 h -23.48 v 258.52 h -42.29 v 55.76 h -126.93 v -55.76 h -42.26 v -258.52 h -23.51 v -95.13 h -129.24 v -131.79 h -105.73 v 89.95 h -123.2 v 40.41 H 1539.5 v 481.15 h -19.97 v 50.68 h -28.78 l -10.02,179.95 -7.76,-179.95 h -30.99 v -50.68 h -57.56 v -441.27 h -12.63 c -85.72,65.78 -160.51,130.92 -220.18,186.29 -60.4,56.03 -105.32,102.05 -130.4,128.54 v 38.51 h -35.585 v -33.54 l -124.844,0.07 v 33.47 h -35.586 v -49.83 c -6.64,-20.96 -23.933,-73.69 -50.644,-141.35 -27.852,-70.46 -57.879,-138.19 -92.051,-202.58 H 536.152 v -48.06 h -77.547 v -247.09 l -60.531,-14.13 -5.039,17.84 -55.672,-15.95 0.86,-3.51 c 0.937,-3.85 1.855,-7.81 2.793,-11.71 l -56.551,-13.198 -0.637,1.618 c -3.855,9.86 -8.254,17.7 -13.367,24 l 8.316,1.81 -0.562,0.27 c 1.89,0.65 3.367,1.37 4.617,2.22 l 2.246,1.5 -0.39,1.29 2.089,-1.71 1.614,0.59 c 3.047,1.02 6.226,2.14 9.722,3.34 8.364,2.96 17.844,6.27 29.399,9.74 l 5.269,1.54 -3.679,4.36 c -5.235,6.14 -10.079,11.25 -14.832,15.68 l -1.309,1.19 -3.703,-0.95 2.097,2.55 -2.878,2.32 c -8.704,7.3 -16.946,12.09 -25.118,14.76 l -2.265,0.72 -1.797,-2.59 -1.25,3.27 c 5.027,7.67 10.754,16.33 17.969,26.34 l 3.386,4.64 -5.386,1.12 c -7.485,1.57 -14.211,2.56 -20.547,3.07 l -1.723,0.13 -2.43,-3.2 0.262,3.41 -3.609,0.07 c -10.942,0.21 -20.18,-1.16 -28.313,-4.3 l -2.187,-0.88 -0.039,-3.28 -2.864,1.88 -1.675,-0.96 c -6.125,-3.39 -11.45,-8.2 -15.754,-14.13 l -1.16,-1.51 c -8.45,-10.46 -17.09,-21.24 -20.161,-38.64 -17.671,8.76 -34.05,8 -49.16,5.72 -6.531,-0.58 -13.379,-2.87 -19.39,-6.54 l -1.633,-1 -0.086,-3.58 -2.59,1.7 -1.863,-1.46 c -6.848,-5.62 -12.961,-13.25 -18.762,-23.31 l -1.9062,-3.27 2.7652,-1.61 -3.7613,-0.47 -0.8359,-1.63 c -3.0079,-5.9 -5.8711,-12.51 -8.793,-20.25 l -2.086,-5.48 5.4375,0.511 c 9.6097,0.919 17.9027,1.349 25.4107,1.699 l -0.704,-1.6 -0.73,-1.821 1.851,-2.949 -3.015,-0.25 -0.652,-2.418 c -2.336,-8.883 -3.149,-18.954 -2.227,-30.77 l 0.32,-3.82 3.106,0.476 -2.793,-2.828 0.222,-1.84 c 0.852,-6.738 2.231,-13.941 4.122,-21.949 l 1.347,-5.68 4.113,3.911 c 8.973,8.558 16.7,15.308 23.543,21.296 2.844,2.461 5.461,4.75 7.914,6.922 l 1.329,1.231 -0.161,2.73 0.774,-1.062 2.433,1.293 c 1.532,0.82 3.125,1.968 4.864,3.508 l 2.312,2.46 1.309,1.532 1.531,1.468 c 2.082,-8.121 5.859,-16.429 11.406,-25.332 l 2.024,-3.128 2.488,2.039 -1.18,-3.918 1.067,-1.5 c 3.758,-5.391 8.191,-10.903 13.562,-16.903 l 3.828,-4.25 1.731,5.543 c 3.965,12.239 7.644,22.258 10.879,31.16 0.738,2.02 1.387,3.829 2.066,5.731 1.938,-8.121 3.75,-15.192 4.887,-19.473 L 235.945,907 235.918,906.988 248.77,879.109 H 0.0195313 V 0 H 8000 v 564.672 433.629 h -233.17"
         style="fill:#64324c;fill-opacity:1;fill-rule:nonzero;stroke:none"
         id="path52" /><path
         d="m 4161.14,2563.38 c 15.32,-7.77 30.64,-15.31 44.66,-26.28 12.33,-9.68 12.51,-10.46 0.52,-21.2 -2.46,-2.21 -5.16,-4.33 -4.34,-8.59 1.63,-8.46 3.67,-16.94 9.67,-22.63 2.36,-2.21 5.46,-3.24 8.55,-4.94 3.93,11.41 2.75,24.03 12.21,31.04 1.64,-1.32 3.46,-2.11 4.54,-3.68 8.61,-12.43 17.11,-25.05 25.63,-37.61 1.72,-2.57 3.03,-5.5 5.05,-7.65 1.08,-1.2 3.7,-2.04 4.76,-1.32 1.54,1.08 2.52,3.67 3.25,5.82 0.37,1.19 -0.22,2.8 -0.53,4.16 -3.47,16.43 -6.95,32.85 -10.57,49.18 -1.48,6.89 -4.41,12.24 -10.16,15.68 -8.97,5.42 -12.87,14.65 -12.01,26.72 0.14,2.29 -0.48,4.7 -0.76,7.09 -1.49,0.11 -2.47,0.47 -3.23,0.18 -1.1,-0.51 -2.16,-1.34 -2.96,-2.33 -7.14,-7.67 -7.09,-7.53 -14.39,0.48 -3.27,3.61 -6.78,7.84 -10.8,9.37 -18.51,6.88 -37.76,6.11 -56.79,5.49 -1.97,-0.1 -5.28,-2.58 -5.44,-4.3 -0.29,-2.58 1.04,-6.4 2.82,-8.11 2.99,-2.83 6.71,-4.76 10.32,-6.57"
         style="fill:#64324c;fill-opacity:1;fill-rule:nonzero;stroke:none"
         id="path54" /><path
         d="m 3730,2420.58 c 2.26,0.25 5.07,1.29 6.48,3.2 5.28,7.05 12.74,9.51 19.21,13.99 7.26,5.06 13.78,3.46 20.46,-1.28 6.14,-4.34 8.18,-9.85 6.02,-17.97 -1.29,-4.43 -3.23,-8.65 -3.93,-13.15 -0.45,-2.89 -0.18,-6.99 1.29,-8.96 4.12,-5.7 9.77,-8.41 16.29,-7.24 5.95,1.14 7.56,3.79 6.98,11.08 -0.24,3.25 -0.6,6.48 -1.05,9.68 -1.54,11.52 0.99,16.36 13.18,13.16 3.41,-0.92 7.39,-4.36 9.05,-7.93 3.8,-8.47 6.36,-17.76 9.51,-26.66 1.49,-4.26 2.67,-8.87 4.97,-12.44 2.22,-3.45 5.8,-1.77 6.57,2.66 0.23,1.36 0.29,2.86 0.17,4.29 -1.41,20.14 -4.42,39.95 -9.86,59.16 -0.69,2.37 -1.76,4.61 -2.85,6.79 -2.7,5.76 -6.48,8.62 -12.43,8.73 -14.96,0.24 -16.52,1.96 -21.3,18.81 -0.15,0.61 -0.69,1.12 -1.57,2.43 -1.2,-0.31 -2.32,-0.22 -2.84,-0.8 -1.25,-1.5 -2.21,-3.33 -3.28,-5.08 -3.59,-6.2 -4.75,-6.47 -10.26,-2.38 -1.24,0.95 -2.51,2.02 -3.67,3.18 -5.52,5.51 -11.65,6.67 -17.54,1.73 -7.38,-6.17 -14.7,-12.64 -21.07,-20.21 -5.73,-6.78 -10.57,-14.83 -15.06,-22.91 -3.38,-6.13 0.32,-12.53 6.53,-11.88"
         style="fill:#64324c;fill-opacity:1;fill-rule:nonzero;stroke:none"
         id="path56" /><path
         d="m 3831.83,2138.47 c -7.25,11.15 -15.9,18.75 -27.86,20.58 -17.03,2.56 -26.42,2.67 -34.03,-1.98 3.68,-2.89 6.73,-5.47 9.93,-7.66 13.09,-8.94 26.31,-17.53 39.35,-26.49 2.37,-1.6 4.23,-4.12 6.58,-5.79 3.15,-2.24 4.11,-5.69 5.22,-9.5 1.83,-6.35 -0.82,-11.29 -2.28,-16.6 -2.19,-8.11 -1.52,-10.37 5.18,-12.95 4.26,-1.64 8.82,-2.26 13.37,-2.77 4.02,-0.45 5.29,2.56 4.65,6.95 -0.61,4.26 -1.59,8.49 -1.83,12.76 -0.32,5.72 0.92,11.21 6.04,13.15 8.61,3.3 17.3,6.27 26.14,8.76 14.11,4.02 28.32,7.45 42.46,11.38 1.98,0.54 3.68,2.66 6.52,4.84 -3.15,2.12 -4.82,4.06 -6.69,4.36 -15.24,2.84 -30.43,5.66 -45.74,7.85 -6.09,0.88 -11.79,-1.78 -17.25,-5.59 -11.33,-7.99 -12.08,-7.58 -19.46,5.34 -3.18,-2.08 -6.48,-4.18 -10.3,-6.64"
         style="fill:#64324c;fill-opacity:1;fill-rule:nonzero;stroke:none"
         id="path58" /><path
         d="m 7669.79,1379.07 1.87,-4.37 c -1.27,-2.35 -2.53,-4.7 -3.76,-7.04 z m -115.53,66.36 c 6.62,-0.54 12.75,-1.06 18.57,-1.5 l 1.7,-0.1 8.02,10.4 -0.78,-9.89 2.52,-0.88 c 2.85,-1.03 6.02,-1.54 10.29,-1.78 l 5.72,0.07 -0.38,-0.37 12.57,0.57 -0.09,-0.17 c -7.8,-14.52 -13.24,-32.01 -16.49,-53.47 l -0.59,-3.78 11.94,-1.27 -12.92,-7.81 -0.21,-1.86 c -1.27,-12.34 -1.76,-25.87 -1.67,-41.25 l 0.04,-5.86 4.84,2.69 c 20.05,11.28 37.04,19.84 52.08,27.37 5.86,2.97 11.45,5.76 16.62,8.45 l 0.65,0.33 c -8.24,-15.76 -15.7,-30.91 -20.99,-41.9 l -18.51,-65.44 53.73,-15.38 0.92,3.38 c 5.88,21.73 11.59,41.95 17.35,61.79 5.43,18.58 9.81,34.39 13.4,48.01 l 0.31,-0.59 c 2.23,-3.6 4.39,-6.31 6.58,-8.43 l 2.03,-1.88 7.46,5.77 -4.19,-12.72 0.96,-1.53 c 3.35,-5.22 6.95,-10.7 10.75,-16.54 9.53,-14.54 20.28,-30.97 32.4,-51.35 l 2.92,-4.97 2.8,5.1 c 7.16,13.32 12.92,25.32 17.52,36.68 l 0.67,1.74 -7.66,13.7 10.97,-5.29 1.22,3.58 c 7.02,20.38 10.43,38.47 10.31,55.25 l 0.02,0.2 10.77,-7.32 -0.21,0.54 5.05,-3.17 c 3.52,-1.95 6.54,-3.18 9.55,-3.88 l 2.62,-0.55 3.86,8.96 2.15,-13.28 1.53,-0.83 c 5.27,-2.78 10.9,-5.62 16.9,-8.69 14.91,-7.63 31.74,-16.23 51.58,-27.57 l 4.86,-2.76 0.08,5.9 c 0.2,15.37 -0.3,28.83 -1.46,41.27 l -0.2,1.81 -12.87,7.9 11.93,1.19 -0.55,3.79 c -3.17,21.51 -8.45,39.02 -16.23,53.57 l -1.12,2.19 -8.55,-1.5 3.48,9.68 -1.17,1.57 -0.68,0.95 3.37,0.72 c 16.19,3.44 34.53,7.36 56.79,11.01 l 5.41,0.87 -3.16,4.81 c -8.32,12.45 -16.15,22.98 -23.92,32.22 l -1.2,1.36 -14.72,-1.97 8.95,8.64 -2.57,2.69 c -14.39,15.25 -28.33,25.91 -42.58,32.64 l -2.15,1.01 -6,-6.71 -2.58,9.98 -3.47,1.03 c -11.51,3.29 -23.33,3.98 -35.02,2.03 l -3.72,-0.4 c -24.31,-2.58 -49.48,-5.24 -74.7,-26.38 -13.01,37.87 -36.48,59.85 -59.85,77.84 -9.39,8.09 -20,13.81 -31.47,17.11 l -3.49,0.97 -6.84,-7.27 -2.13,9.04 -2.28,0.24 c -15.53,1.84 -32.52,0.02 -52.05,-5.5 l -3.44,-0.96 3.78,-12.29 -11.85,9.6 -1.65,-0.56 c -11.02,-3.83 -22.65,-8.77 -35.61,-15.15 l -4.99,-2.44 4.28,-3.66 c 15.84,-13.53 28.8,-25.56 40.3,-36.29 -2.64,-0.86 -5.09,-1.84 -7.42,-2.87 l -1.74,-0.78 -1.45,-10.23 -6.7,5.87 -2.01,-1.26 c -13.4,-8.52 -26.1,-20.9 -38.75,-37.84 l -2.2,-3 9.8,-7.47 -14.81,0.14 -1.03,-1.53 c -6.68,-10.09 -13.32,-21.57 -20.21,-35.06 l -2.66,-5.15 5.46,-0.21 c 22.48,-0.76 41.14,-2.32 57.56,-3.68"
         style="fill:#64324c;fill-opacity:1;fill-rule:nonzero;stroke:none"
         id="path60" /><path
         d="m 319.246,1098.68 c 5.551,-20.87 10.957,-41.97 16.098,-62.68 l 0.847,-3.48 55.52,15.91 -19.602,69.19 -53.82,-15.4 0.957,-3.54"
         style="fill:#64324c;fill-opacity:1;fill-rule:nonzero;stroke:none"
         id="path62" /><path
         d="m 328.125,1243.43 1.902,-11.41 c -1.226,2.34 -2.488,4.69 -3.757,7.04 z m -222.52,65.87 3.387,-0.71 -0.73,-0.96 -1.121,-1.57 3.445,-9.63 -8.516,1.49 -1.172,-2.22 c -7.7613,-14.55 -13.0386,-32.07 -16.1792,-53.54 l -0.5391,-3.82 11.9219,-1.19 -12.918,-7.91 -0.1641,-1.81 c -1.2031,-12.43 -1.6797,-25.9 -1.4765,-41.27 l 0.1093,-5.89 4.8399,2.76 c 19.8088,11.34 36.7108,19.97 51.6128,27.54 5.95,3.1 11.622,5.96 16.856,8.76 l 1.531,0.78 2.192,13.29 3.843,-8.97 2.59,0.59 c 3.008,0.67 6.074,1.94 9.571,3.85 l 5.007,3.17 -0.164,-0.52 10.774,7.3 v -0.2 c -0.11,-16.77 3.269,-34.87 10.281,-55.22 l 1.289,-3.61 10.945,5.28 -7.703,-13.65 0.696,-1.75 c 4.597,-11.38 10.347,-23.39 17.554,-36.71 l 2.766,-5.12 2.937,4.99 c 12.121,20.38 22.856,36.84 32.407,51.35 3.796,5.83 7.39,11.36 10.718,16.58 l 1.008,1.52 -4.226,12.72 7.5,-5.8 1.98,1.88 c 2.207,2.08 4.356,4.83 6.563,8.42 l 0.324,0.61 c 3.582,-13.63 7.976,-29.44 13.406,-48.02 5.813,-19.8 11.465,-40.05 17.395,-61.8 l 0.875,-3.37 53.761,15.41 -18.523,65.43 c -5.285,10.99 -12.738,26.13 -20.988,41.89 l 0.656,-0.34 c 5.191,-2.65 10.73,-5.44 16.621,-8.43 15,-7.55 32.039,-16.1 52.051,-27.35 l 4.84,-2.73 0.07,5.89 c 0.097,15.34 -0.449,28.88 -1.699,41.25 l -0.188,1.87 -12.957,7.77 11.934,1.26 -0.567,3.81 c -3.269,21.45 -8.672,38.93 -16.511,53.49 l -0.09,0.16 12.566,-0.58 -0.379,0.34 5.762,-0.06 c 4.226,0.2 7.441,0.75 10.305,1.77 l 2.527,0.92 -0.789,9.85 7.969,-10.4 1.754,0.14 c 5.785,0.41 11.957,0.93 18.539,1.47 16.433,1.39 35.093,2.96 57.578,3.71 l 5.457,0.21 -2.656,5.14 c -6.915,13.47 -13.516,24.95 -20.215,35.04 l -1.004,1.54 -14.836,-0.11 9.765,7.47 -2.207,2.96 c -12.586,16.98 -25.285,29.35 -38.711,37.86 l -2,1.23 -6.679,-5.86 -1.516,10.23 -1.68,0.82 c -2.351,1.02 -4.785,1.97 -7.421,2.82 11.496,10.74 24.453,22.81 40.273,36.27 l 4.246,3.71 -4.949,2.42 c -12.93,6.37 -24.578,11.35 -35.598,15.17 l -1.676,0.54 -11.859,-9.58 3.82,12.27 -3.464,0.97 c -19.504,5.54 -36.536,7.31 -52.043,5.51 l -2.266,-0.24 -2.148,-9.06 -6.829,7.25 -3.496,-0.92 c -11.504,-3.3 -22.097,-9.05 -31.492,-17.14 -23.367,-17.96 -46.808,-39.94 -59.851,-77.82 -25.176,21.11 -50.332,23.8 -74.68,26.39 l -3.699,0.41 c -11.731,1.92 -23.567,1.23 -35.012,-2.05 l -3.516,-1.05 -2.558,-9.96 -6.043,6.68 -2.09,-0.98 c -14.289,-6.72 -28.2423,-17.41 -42.6173,-32.65 l -2.5508,-2.7 8.9258,-8.66 -14.6875,2.01 -1.2109,-1.39 c -7.7461,-9.2 -15.6367,-19.76 -23.9141,-32.2 l -3.1484,-4.81 5.3711,-0.85 c 22.289,-3.66 40.6172,-7.6 56.8081,-11.05"
         style="fill:#64324c;fill-opacity:1;fill-rule:nonzero;stroke:none"
         id="path64" /><path
         d="M 8000,416.371 H 5481.16 v 17.25 H 8000 v -17.25"
         style="fill:#ffffff;fill-opacity:1;fill-rule:nonzero;stroke:none"
         id="path66" /><path
         d="M 2518.84,416.371 H 0 v 17.25 h 2518.84 v -17.25"
         style="fill:#ffffff;fill-opacity:1;fill-rule:nonzero;stroke:none"
         id="path68" /><path
         d="M 7352.22,159.398 V 312.09 h 4.79 V 159.102 c 0,-36.301 36.6,-54.301 68.7,-54.301 32.1,0 68.7,18 68.7,54.597 V 312.09 h 4.8 V 159.102 c 0,-38.704 -39,-59.102 -73.5,-59.102 -34.79,0 -73.49,20.398 -73.49,59.398"
         style="fill:#ffffff;fill-opacity:1;fill-rule:nonzero;stroke:none"
         id="path70" /><path
         d="m 7680.7,268.289 c -1.79,8.703 -5.4,16.203 -11.39,22.801 -12.9,13.801 -33.61,19.512 -52.5,19.199 -19.8,-0.301 -42.3,-7.5 -54.91,-23.988 -7.49,-9.309 -10.19,-20.403 -9.29,-32.102 5.4,-73.5 123,-15.898 137.39,-83.097 9.6,-44.403 -32.39,-70.801 -72.29,-70.801 -30.6,0 -67.8,17.41 -71.4,51.301 l -0.3,2.097 4.8,0.602 0.3,-2.102 c 3.3,-31.5 38.4,-47.398 66.9,-47.398 36.6,0 76.19,23.711 67.5,65.398 -13.51,62.403 -132,5.403 -137.4,83.703 -1.2,12.586 2.1,24.899 9.9,35.086 30.59,39.602 116.99,34.512 127.2,-19.789 l 0.3,-2.398 -4.5,-0.903 -0.31,2.391"
         style="fill:#ffffff;fill-opacity:1;fill-rule:nonzero;stroke:none"
         id="path72" /><path
         d="m 7762,177.398 h 102.31 l -51.3,131.692 z m 104.1,-4.5 h -106.2 l -28.49,-70.5 h -5.1 l 84.3,212.993 h 5.09 L 7900,102.398 h -5.1 l -28.8,70.5"
         style="fill:#ffffff;fill-opacity:1;fill-rule:nonzero;stroke:none"
         id="path74" /><path
         d="m 2910.26,652.238 c 24.01,-24 39.01,-57.75 39.01,-94.5 h -50.26 c 0,50.254 -33.74,85.5 -82.49,85.5 -50.99,0 -84,-37.5 -84.74,-86.25 v -3.75 c 0,-35.988 25.5,-57.738 60.74,-77.238 17.26,-9.762 36.75,-19.512 57,-28.5 40.5,-18.75 76.5,-43.512 99.75,-79.5 11.25,-18 17.24,-40.5 17.24,-66.75 0,-39.75 -17.99,-75.738 -45,-101.988 -27.74,-26.25 -65.99,-42 -104.99,-42 -39.75,0 -75.75,16.5 -102,43.488 -26.99,26.25 -42.74,62.262 -42.74,102 v 3.75 h 48 v -3.75 c 0,-27 10.49,-50.988 28.49,-68.25 17.26,-18 41.25,-28.488 68.25,-28.488 27,0 51.75,10.488 69.75,28.488 18,17.262 30,41.25 30,68.25 0,42.75 -25.5,69 -60,89.988 -17.25,10.512 -36,20.262 -56.25,29.25 -40.5,18.012 -76.49,39.762 -99.75,71.25 -11.25,15.75 -17.24,35.262 -17.24,60 v 3.75 c 0,36.75 15,70.5 38.99,95.25 24.01,24 57.76,39 94.5,39 36,0 69.75,-15 93.74,-39"
         style="fill:#ffffff;fill-opacity:1;fill-rule:nonzero;stroke:none"
         id="path76" /><path
         d="m 3091.01,614.738 c -17.25,-17.25 -27.75,-40.496 -27.75,-66.746 V 401.75 h 190.49 v 146.242 c 0,26.25 -10.5,49.496 -27.74,66.746 -18,17.25 -41.25,27.75 -67.5,27.75 -26.25,0 -50.25,-10.5 -67.5,-27.75 z m 168.75,34.504 c 26.25,-25.504 41.99,-62.254 41.99,-101.25 v -385.48 h -48 V 353.75 H 3063.26 V 162.512 h -48 v 385.48 c 0,38.996 15.76,75.746 42.01,101.25 26.24,25.496 62.24,41.25 101.24,41.25 39,0 75,-15.754 101.25,-41.25"
         style="fill:#ffffff;fill-opacity:1;fill-rule:nonzero;stroke:none"
         id="path78" /><path
         d="m 3600.25,651.48 c 26.25,-26.25 42.01,-62.238 42.01,-101.992 V 162.512 h -48 v 386.976 c 0,26.25 -11.25,50.25 -28.5,68.242 -17.25,17.258 -41.25,27.762 -67.5,27.762 -26.25,0 -50.25,-10.504 -67.5,-27.762 -18,-17.992 -28.49,-41.992 -28.49,-68.242 V 162.512 h -48 v 386.976 c 0,39.754 15.75,75.742 42,101.992 26.24,26.25 62.25,42.008 101.99,42.008 39.75,0 75.74,-15.758 101.99,-42.008"
         style="fill:#ffffff;fill-opacity:1;fill-rule:nonzero;stroke:none"
         id="path80" /><path
         d="m 3967.75,210.512 h 94.5 c 26.25,0 49.5,10.5 67.5,28.488 17.24,17.25 27.75,40.5 27.75,67.5 v 239.238 c 0,26.25 -10.51,49.5 -27.75,67.5 -18,17.254 -41.25,27.75 -67.5,27.75 h -94.5 z M 4063,688.98 c 39,0 75.75,-15.75 101.25,-41.25 25.5,-25.492 41.99,-62.238 41.99,-101.242 V 304.25 C 4205.49,265.25 4189.75,230 4163.5,204.5 4137.25,179 4102,162.512 4063,162.512 H 3919.76 V 688.98 H 4063"
         style="fill:#ffffff;fill-opacity:1;fill-rule:nonzero;stroke:none"
         id="path82" /><path
         d="m 4258.75,162.512 v 524.976 h 48 V 162.512 h -48"
         style="fill:#ffffff;fill-opacity:1;fill-rule:nonzero;stroke:none"
         id="path84" /><path
         d="m 4435.73,614.738 c -18,-17.996 -28.49,-41.25 -28.49,-67.488 v -51.012 h 191.99 v 51.012 c 0,26.238 -11.25,49.492 -28.5,67.488 -17.25,17.25 -41.25,27.75 -67.5,27.75 -26.25,0 -50.24,-10.5 -67.5,-27.75 z m 169.49,34.504 c 26.25,-26.25 42.01,-62.254 42.01,-101.992 V 448.238 H 4407.24 V 300.5 c 0,-26.25 10.49,-50.25 28.49,-67.488 17.26,-18 41.25,-28.512 67.5,-28.512 26.25,0 50.25,10.512 67.5,28.512 17.25,17.238 28.5,41.238 28.5,67.488 v 3.012 h 48 V 300.5 c 0,-39.75 -15.76,-75.738 -42.01,-101.988 -26.25,-26.25 -62.24,-42.012 -101.99,-42.012 -39.74,0 -75.75,15.762 -101.99,42.012 -26.25,26.25 -42,62.238 -42,101.988 v 246.75 c 0,39.738 15.75,75.742 42,101.992 26.24,26.25 62.25,41.996 101.99,41.996 39.75,0 75.74,-15.746 101.99,-41.996"
         style="fill:#ffffff;fill-opacity:1;fill-rule:nonzero;stroke:none"
         id="path86" /><path
         d="m 4945.72,649.242 c 26.25,-26.25 42,-62.254 42,-101.992 v -3.008 h -47.99 v 3.008 c 0,26.238 -11.25,49.492 -28.5,67.488 -17.26,17.25 -41.25,27.75 -67.5,27.75 -27,0 -50.25,-10.5 -67.5,-27.75 -18,-17.996 -28.5,-41.25 -28.5,-67.488 V 300.5 c 0,-26.25 10.5,-50.25 28.5,-67.488 17.25,-18 40.5,-28.512 67.5,-28.512 26.25,0 50.24,10.512 67.5,28.512 17.25,17.238 28.5,41.238 28.5,67.488 v 51.75 h -96.75 v 47.988 h 144.74 V 300.5 c 0,-39.75 -15.75,-75.738 -42,-101.988 -26.25,-26.25 -62.24,-42.012 -101.99,-42.012 -39.75,0 -75.75,15.762 -101.99,42.012 -26.25,26.25 -42,62.238 -42,101.988 v 246.75 c 0,39.738 15.75,75.742 42,101.992 26.24,26.25 62.24,41.996 101.99,41.996 39.75,0 75.74,-15.746 101.99,-41.996"
         style="fill:#ffffff;fill-opacity:1;fill-rule:nonzero;stroke:none"
         id="path88" /><path
         d="m 5116.73,614.738 c -18,-17.996 -28.5,-41.25 -28.5,-67.488 V 300.5 c 0,-26.25 10.5,-50.25 28.5,-67.488 17.25,-17.262 41.25,-27.762 67.5,-27.762 26.25,0 50.24,10.5 68.24,27.762 17.26,17.238 27.75,41.238 27.75,67.488 v 246.75 c 0,26.238 -10.49,49.492 -27.75,67.488 -18,17.25 -41.99,27.75 -68.24,27.75 -26.25,0 -50.25,-10.5 -67.5,-27.75 z m 169.49,34.504 c 26.25,-26.25 42,-62.254 42,-101.992 V 300.5 c 0,-39.75 -15.75,-75.738 -42,-101.988 -26.25,-26.25 -62.25,-42.012 -101.99,-42.012 -39.75,0 -75.75,15.762 -101.99,42.012 -26.25,26.25 -42.01,62.238 -42.01,101.988 v 246.75 c 0,39.738 15.76,75.742 42.01,101.992 26.24,26.25 62.24,41.996 101.99,41.996 39.74,0 75.74,-15.746 101.99,-41.996"
         style="fill:#ffffff;fill-opacity:1;fill-rule:nonzero;stroke:none"
         id="path90" /></g></g></svg>
